<svg xmlns="http://www.w3.org/2000/svg" xml:space="preserve" id="Layer_1" x="0" y="0" version="1.1"
     viewBox="0 0 277.668 277.67"><style id="style1" type="text/css">.st0{fill-rule:evenodd;clip-rule:evenodd}</style>
    <path id="path2"
          d="M232.881 42.363c2.569-14.89 6.339-24.253 10.515-24.271h.008c7.787.027 14.099 32.499 14.099 72.59 0 40.092-6.321 72.59-14.116 72.59-3.196 0-6.145-5.518-8.519-14.765-3.752 33.85-11.538 57.119-20.552 57.119-6.974 0-13.233-13.978-17.435-36.022-2.869 41.924-10.09 71.669-18.53 71.669-5.297 0-10.126-11.787-13.701-30.979-4.299 39.617-14.231 67.376-25.813 67.376-11.582 0-21.532-27.75-25.813-67.376-3.549 19.192-8.378 30.979-13.701 30.979-8.44 0-15.643-29.745-18.53-71.669-4.202 22.044-10.443 36.022-17.435 36.022-9.004 0-16.8-23.261-20.551-57.119-2.357 9.274-5.323 14.765-8.519 14.765-7.795 0-14.116-32.498-14.116-72.59 0-40.091 6.321-72.59 14.116-72.59 4.184 0 7.928 9.39 10.523 24.271C48.968 16.688 55.721 0 63.357 0c9.066 0 16.923 23.6 20.64 57.87 3.637-24.942 9.155-40.842 15.334-40.842 8.66 0 16.022 31.273 18.75 74.897 5.129-22.366 12.554-36.398 20.773-36.398 8.218 0 15.643 14.04 20.763 36.398 2.737-43.624 10.09-74.897 18.751-74.897 6.17 0 11.679 15.901 15.334 40.842C197.411 23.6 205.268 0 214.334 0c7.61 0 14.389 16.697 18.547 42.363zM0 83.542C0 65.62 3.584 51.088 8.007 51.088s8.007 14.532 8.007 32.454c0 17.921-3.584 32.454-8.007 32.454S0 101.463 0 83.542Zm261.654 0c0-17.922 3.584-32.454 8.007-32.454 4.422 0 8.007 14.532 8.007 32.454 0 17.921-3.585 32.454-8.007 32.454-4.423 0-8.007-14.533-8.007-32.454z"
          style="fill-rule:evenodd;clip-rule:evenodd;fill:#a238ff"/></svg>