<svg xmlns="http://www.w3.org/2000/svg" fill="none" viewBox="0 0 261 244">
    <g clip-path="url(#a)">
        <path fill="#344BFF" fill-opacity=".941"
              d="M222.336 40.617c-2.376 0-4.753 0-7.128.332h-.34l-.339-.332C194.501 15.314 162.933 0 130.347 0 97.76 0 65.852 15.314 46.164 40.95l-.339.332h-.34c-2.376-.333-4.752-.333-7.128-.333H23.422v25.968l-.34.333C9.165 73.576 0 87.559 0 102.873c0 15.314 9.165 29.297 23.082 35.623h.68v.665c.338 57.263 48.2 103.872 106.585 103.872 58.384 0 106.246-46.609 106.585-103.872v-.665l.339-.333c13.918-6.658 23.083-20.642 23.083-35.623 0-15.315-9.165-29.297-23.083-35.623l-.339-.333V40.616h-14.596ZM73.999 49.272c14.936-14.648 35.302-22.971 56.348-22.971 21.045 0 41.412 8.323 56.347 22.971l.679.666-1.018.666c-4.073 2.33-7.807 4.661-11.541 7.324l-.34.333-.339-.333c-9.844-4.993-25.458-10.653-43.449-10.653-17.99 0-33.605 5.66-43.449 10.653l-.34.333-.339-.333c-3.734-2.663-7.807-5.326-11.541-7.324l-2.036-.666 1.018-.666Zm133.741 88.891c0 41.948-34.963 76.239-77.733 76.239s-77.393-34.291-77.393-76.239V72.244l1.018.333c13.578 3.329 26.477 17.978 29.532 21.64 3.394-3.662 19.348-17.978 47.183-17.978 27.834 0 43.788 14.649 47.183 17.978 3.054-3.662 15.614-18.311 29.531-21.64l1.018-.333v65.919h-.339Z"/>
    </g>
    <defs>
        <clipPath id="a">
            <path fill="#fff" d="M0 0h261v244H0z"/>
        </clipPath>
    </defs>
</svg>