<?xml version="1.0" standalone="no"?>
<!DOCTYPE svg PUBLIC "-//W3C//DTD SVG 20010904//EN"
 "http://www.w3.org/TR/2001/REC-SVG-20010904/DTD/svg10.dtd">
<svg version="1.0" xmlns="http://www.w3.org/2000/svg"
 width="700.000000pt" height="700.000000pt" viewBox="0 0 700.000000 700.000000"
 preserveAspectRatio="xMidYMid meet">
<metadata>
Created by potrace 1.14, written by Peter Selinger 2001-2017
</metadata>
<g transform="translate(0.000000,700.000000) scale(0.100000,-0.100000)"
fill="#000000" stroke="none">
<path d="M3500 5836 l0 -586 43 -1 c173 -2 411 -39 594 -90 623 -175 1162
-622 1448 -1202 117 -238 196 -493 221 -707 3 -25 7 -51 10 -58 2 -8 7 -71 10
-140 4 -70 9 -129 11 -132 3 -3 266 -5 585 -5 l581 -1 -7 156 c-39 991 -499
1912 -1275 2553 -48 40 -98 80 -111 90 -14 9 -53 37 -87 62 -534 385 -1188
607 -1885 641 l-138 6 0 -586z"/>
<path d="M3 4077 c-5 -8 4 -252 13 -327 9 -81 23 -195 28 -215 2 -11 7 -40 11
-65 3 -25 8 -57 11 -71 17 -113 133 -504 178 -604 8 -16 26 -59 41 -95 75
-180 186 -383 309 -564 45 -65 88 -129 96 -141 101 -151 427 -487 624 -644
447 -356 959 -594 1506 -700 130 -25 144 -28 216 -36 33 -4 70 -9 84 -11 44
-7 164 -15 274 -18 l106 -4 0 584 0 584 -62 1 c-117 3 -259 17 -334 34 -12 3
-36 7 -55 10 -19 3 -61 12 -94 21 -33 8 -76 19 -95 23 -100 23 -272 92 -427
172 -221 113 -394 240 -579 424 -336 336 -549 733 -643 1200 -26 130 -30 165
-37 315 -4 69 -8 127 -11 130 -7 8 -1155 5 -1160 -3z"/>
<path d="M2335 4080 c-4 -7 2 -101 10 -158 49 -363 282 -696 608 -867 138 -72
261 -110 427 -132 30 -4 332 -7 670 -7 l615 -1 1 45 c1 65 -22 207 -47 292
-25 84 -92 230 -140 303 -183 282 -500 480 -834 521 -66 8 -1305 12 -1310 4z"/>
</g>
</svg>
